/* XPM */
static char *_eb097df829a436b8bab93ae95dc95a4TzNoNmVae0peMJ8Q[] = {
/* columns rows colors chars-per-pixel */
"50 50 69 1 ",
"  c #47704C",
". c #EF0000",
"X c None",
"o c red",
"O c #FF0101",
"+ c #F50000",
"@ c #4A0000",
"# c #D80000",
"$ c #FF0101",
"% c #324242",
"& c #330000",
"* c #959090",
"= c #360000",
"- c #1C0000",
"; c #2D3737",
": c #EE0000",
"> c #F70000",
", c #F60000",
"< c #EB0000",
"1 c #6A0000",
"2 c #BE0000",
"3 c #480000",
"4 c #FE0000",
"5 c #F50000",
"6 c #FE0000",
"7 c #FE0000",
"8 c red",
"9 c #212828",
"0 c #680000",
"q c #F50000",
"w c #9A0101",
"e c #FC0000",
"r c red",
"t c #2D0000",
"y c #310000",
"u c #AB0101",
"i c #FF0185",
"p c #FF484D",
"a c #8F8D8D",
"s c #FF0101",
"d c #484848",
"f c gray30",
"g c #929090",
"h c #8C8989",
"j c #9C9A9A",
"k c #878585",
"l c #989696",
"z c #959393",
"x c #817F7F",
"c c #6B6A6A",
"v c #A29D9D",
"b c #414242",
"n c #7B7A7A",
"m c #727272",
"M c #0A1717",
"N c #AE0000",
"B c #656565",
"V c #A70000",
"C c #0F1D1D",
"Z c #949090",
"A c #595858",
"S c #000B0B",
"D c #E00000",
"F c #969191",
"G c #606161",
"H c #465757",
"J c #800000",
"K c #F40000",
"L c #47704C",
/* pixels */
"                                                  ",
"                                                  ",
"                                                  ",
"                                                  ",
"                                                  ",
"                                                  ",
"                                                  ",
"                                                  ",
"                                                  ",
"                                                  ",
"                                                  ",
"                                                  ",
"                                                  ",
"                                                  ",
"              ############################        ",
"            #                              #      ",
"          #  <5>>>>>,,,>>>>,+++++........:  ##    ",
"         # :o4sssssssssssssssssssssssssss8O+  #   ",
"          ersN3&&&&&ytt&&&&y33333011111012ss7: #  ",
"        <7s2=SMMMMMMCCCMMMMMMMMMMMSSSSSSXX=Vsr+ # ",
"      # 7swX;AnZ*Z*FFFFFZF*FFF**F*hhhhhhxA9X=D8: #",
"       #4DXBkbAllllllllllllllllllljjjllljkGAS=s7 #",
"       #$NS*gxkkkhhhkkkkkkkkkkkkkxxxnxkkjm;xAXus. ",
"      ##4NMZlnfdfffffffffffffffffdddddddAxkg*S@s5 ",
"       <rwClznnhaaaaaaaaaaaaaaaaaagggahammjzZM@s5 ",
"     # :8J9jzhmBGGGGBBBBBBBBBBBBBcccccccmngzlC@s+ ",
"     # :sJ;vxdbbbdfdddddddbbbbbbbbbbbbbbbbBllC@s+ ",
"     # +s@%vxAcnkaggaaaaahkkkxxkkkkkhkxxkxnzlC@s+ ",
"     # >s=bvgjjlzgahahhaaaaaaagaaaahhhhhhazzlC@s+ ",
"     # es-dvgxAAfffffffffffffffdddddddbbbdfxjC@s+ ",
"     # os-HvaGnahaaaaaaaaaaaaahkkhkhhkkkkkmxjC=sq ",
"     # os-GvzlghxxxxxxxxxxxxxnnnnnxnnnmmnkjzlC=sq ",
"     # os-cvnAffddddddddddddddddddddddddddczlC=sq ",
"     # os-mjcnhhhhhkhhhhhhhhhhhhhhhhhhhhanfzlC=sq ",
"     # os-mjljjjjjjjjjjjjjjjjjjjjjjjjjjjjlhzlC0s. ",
"     # os-mjgnmmmmmmmmcccccccccccccccccccchlhSN4# ",
"     # os-cjAbdffffffdffffffffffddddddddbbflmXD6 #",
"     # 5s@HvBxgagggaggggggggggggaaaaaaaganfFH@s, #",
"     # :8JM*lcmlzzzzzzzzzzzzzzzzzzzzzlzmmzhj9D$#  ",
"       #ODX;kbdagggggggggggggggggggggzxbbxvAus, # ",
"      # 5swXbnhvvvvvvvvvvvvvvvvvvvvvvvjmnjH0s6##  ",
"       # 6s0XM;;;;%%%%%%%%%%%%%%%%%%%%%%b9@K4: #  ",
"        #<OsDD2VNNVVNVNVVVVVVVVVNNVNNNN22Ds$. #   ",
"         #<o6O$O$$O$$$$OOOOOOOOO$$$$$$$$O6e< #    ",
"              # ## ## #         ## #####    #     ",
"           #                              #       ",
"                                                  ",
"                                                  ",
"                                                  ",
"                                                  "
};
