/* XPM */
static char *_2eee06944d749d7fb6aee47fc650808oX93pnH7eovWZyWj[] = {
/* columns rows colors chars-per-pixel */
"50 50 193 2 ",
"   c #020101",
".  c #0B0205",
"X  c #0B0B0A",
"o  c #060A09",
"O  c #120103",
"+  c #1A0004",
"@  c #15020A",
"#  c #1D030C",
"$  c #0C120F",
"%  c #1B0A11",
"&  c #091411",
"*  c #121311",
"=  c #151C19",
"-  c #250100",
";  c #25010D",
":  c #2C000F",
">  c #350201",
",  c #3C0202",
"<  c #240312",
"1  c #2C0012",
"2  c #2C051A",
"3  c #350113",
"4  c #380116",
"5  c #320519",
"6  c #3B031B",
"7  c #1B2019",
"8  c #3B0625",
"9  c #1C2522",
"0  c #282D27",
"q  c #2A2D29",
"w  c #242B29",
"e  c #2E362F",
"r  c #2B3431",
"t  c #3A3E3A",
"y  c #373835",
"u  c #440101",
"i  c #4B0507",
"p  c #590100",
"a  c #45001A",
"s  c #4C011C",
"d  c #52011D",
"f  c #670904",
"g  c #760A06",
"h  c #681006",
"j  c #7C1716",
"k  c #420522",
"l  c #4A0827",
"z  c #540122",
"x  c #530628",
"c  c #5C062D",
"v  c #5D082F",
"b  c #570834",
"n  c #61062F",
"m  c #6A0936",
"M  c #6F073B",
"N  c #6E093A",
"B  c #680733",
"V  c #7D073D",
"C  c #73093A",
"Z  c #7B083C",
"A  c #760638",
"S  c #4D2122",
"D  c #5D2321",
"F  c #6D2D2B",
"G  c #682222",
"H  c #752B29",
"J  c #69322D",
"K  c #72312F",
"L  c #693935",
"P  c #663530",
"I  c #723B38",
"U  c #3C433C",
"Y  c #73413C",
"T  c #7F0841",
"R  c #3A4748",
"E  c #4A4B45",
"W  c #4B5548",
"Q  c #53594F",
"!  c #54574E",
"~  c #4D5E5A",
"^  c #595A56",
"/  c #63564E",
"(  c #715853",
")  c #586055",
"_  c #65685F",
"`  c #69655B",
"'  c #75675E",
"]  c #666E61",
"[  c #6D7469",
"{  c #737B6E",
"}  c #76756A",
"|  c #697A70",
" . c #7B7F72",
".. c #747E73",
"X. c #8B0000",
"o. c #880807",
"O. c #9B0506",
"+. c #940D0E",
"@. c #960607",
"#. c #8A130F",
"$. c #911509",
"%. c #8B1313",
"&. c #811815",
"*. c #871917",
"=. c #A20101",
"-. c #AB0303",
";. c #B60304",
":. c #B71409",
">. c #A9141A",
",. c #B51512",
"<. c #A91606",
"1. c #9C0D29",
"2. c #83093F",
"3. c #8C0B34",
"4. c #980B38",
"5. c #AB1020",
"6. c #A00F30",
"7. c #A70E2A",
"8. c #91322F",
"9. c #CD0101",
"0. c #C10100",
"q. c #D50101",
"w. c #DB0201",
"e. c #C51601",
"r. c #CB1700",
"t. c #C51905",
"y. c #CC1904",
"u. c #D41801",
"i. c #DD1A02",
"p. c #E40001",
"a. c #EB0101",
"s. c #F00003",
"d. c #850943",
"f. c #8C0A45",
"g. c #8D0A49",
"h. c #850845",
"j. c #930B4A",
"k. c #847C71",
"l. c #7B8879",
"z. c #84897C",
"x. c #898B7D",
"c. c #86867A",
"v. c #7F8C82",
"b. c #8A8E80",
"n. c #899486",
"m. c #8F9A8C",
"M. c #88978A",
"N. c #909388",
"B. c #949B8C",
"V. c #9A9D8E",
"C. c #969587",
"Z. c #8D9D90",
"A. c #929F93",
"S. c #9B9E92",
"D. c #959595",
"F. c #A19F92",
"G. c #9EA394",
"H. c #96A998",
"J. c #9CAB9B",
"K. c #95A193",
"L. c #9BB09F",
"P. c #A1A495",
"I. c #A4A897",
"U. c #A4A798",
"Y. c #A5A99A",
"T. c #AAAD9D",
"R. c #ADB09F",
"E. c #A3B09F",
"W. c #B0B19F",
"Q. c #95B6A5",
"!. c #ACAFA0",
"~. c #AFB3A4",
"^. c #AEB2A1",
"/. c #AEBBAA",
"(. c #A5B3A2",
"). c #B0B3A2",
"_. c #B1B2A2",
"`. c #B1B3A2",
"'. c #B1B4A3",
"]. c #B0B4A3",
"[. c #B0B5A1",
"{. c #B1B3A5",
"}. c #B1B5A4",
"|. c #B2B5A5",
" X c #B1B4A3",
".X c #B6B9A9",
"XX c #BABDAC",
"oX c #B1B0AC",
"OX c #C1BFB0",
"+X c #C0C3B2",
"@X c #C4C5BB",
"#X c #C8CABF",
"$X c #C5C6C0",
/* pixels */
").).^.T.U.G.G.G.G.G.G.G.U.T.R.).).).).).).'.Y.I.).).).).).).'.^.T.Y.G.G.G.G.G.G.G.U.T.R.).).).).^.).",
"'.!.U.G.G.G.P.G.G.G.G.G.G.G.U.T.{.{.).).{.T.U.U.Y.^.).).).|.R.Y.G.G.G.G.G.G.G.G.G.G.G.U.T.{.'.).'.'.",
"U.G.G.G.G.G.G.G.G.G.G.G.G.G.G.G.U.T.^.Y.U.G.G.G.G.U.Y.^.T.U.G.G.U.G.G.G.U.G.G.G.G.G.G.G.G.U.T.^.T.U.",
"P.G.G.G.G.G.G.G.G.G.G.G.G.G.G.G.G.Y.^.I.G.G.G.G.G.G.U.R.T.U.G.G.U.G.G.G.G.G.G.G.G.G.G.G.G.G.U.R.Y.G.",
"^.T.U.G.G.G.G.G.G.G.G.G.G.G.U.Y.^.{.).'.^.Y.P.P.U.T.'.'.{.).T.U.G.G.U.U.G.G.G.G.G.U.G.P.Y.R.'.|.{.^.",
").|.R.Y.U.G.G.G.G.G.G.G.U.Y.T.'.'.^.).).{.|.T.Y.~.|.).^.).'.'.!.Y.U.G.G.G.U.G.G.G.U.U.T.).'.).).'.'.",
"!.T.^.'.^.T.U.G.G.G.U.T.^.|.^.T.R.).'.).T.U.G.G.U.T.).'.'.!.T.^.'.).T.U.G.G.G.G.Y.^.'.^.R.R.^.'.'.T.",
"^.).).).).'.'.T.G.T.'.'.).).).).^.!.T.U.G.G.G.G.G.G.U.T.!.^.).).).).'.'.T.P.Y.^.'.^.).'.^.{.^.T.U.G.",
"T.^.'.^.'.).T.U.G.U.!.~.'.).).~.T.U.G.G.G.G.G.G.G.G.G.G.U.T.^.{.'.'.~.!.Y.G.U.T.^.'.).'.).T.U.G.G.G.",
"G.U.T.!.T.U.G.G.P.G.G.U.T.^.T.U.G.G.G.G.G.G.S.G.G.G.G.G.G.V.G.Y.^.R.U.G.G.G.G.G.U.T.^.T.U.G.G.G.G.G.",
"G.G.G.Y.U.G.G.G.G.G.G.G.U.Y.U.G.G.G.G.G.G.Y.T.T.T.T.T.T.T.!.Y.G.Y.U.G.G.G.G.G.G.G.G.Y.U.G.G.G.G.G.G.",
"U.Y.^.'.).T.U.G.G.G.G.T.).'.^.T.U.G.G.T.Y.c.^ U r w w r t ! x..X|.).T.U.G.G.G.U.T.).'.^.T.U.G.G.G.G.",
"'.|.).).).'.{.T.U.T.|.|.^.).).|.^.T.T.[ 9     O - - - + O     E |.).).|.!.P.Y.|.'.).).).'.).T.U.G.G.",
"R.^.^.).'.'.T.U.G.U.T.~.'.).).R.'.T.t   + g <.t.y.y.y.y.t.:.h   ` XX^.T.U.P.U.T.^.'.).).^.R.^.).T.U.",
"^.R.R.^.T.U.G.G.G.G.G.U.T.).R.^.T.w   h y.u.r.e.e.e.e.e.e.r.i.> 9 W.G.S.G.G.G.G.U.Y.^.^.R.^.).^.'.).",
"'.).T.U.G.G.G.G.G.G.G.G.G.U.Y.XXt   $.u.e.e.e.e.r.r.r.r.e.:.6.6 & T.!.Y.G.G.G.G.G.G.U.Y.^.|.^.).).'.",
"T.U.G.G.G.G.G.G.G.G.G.G.G.G.Y.}   g i.e.e.e.e.t.:.,.>.1.3.T g.< = ) e { T.G.G.G.G.P.G.G.U.T.^.).^.T.",
"G.G.G.G.G.G.G.G.G.G.G.U.G.G.T.e O ,.,.5.7.1.4.4.f.h.h.h.h.f.l     # 6   ] T.G.P.G.G.G.G.G.G.U.R.U.G.",
"T.U.G.G.G.G.G.G.G.G.G.G.G.G.U.7 1 j.T M b 8 2 < < # # # < <   @ x d.j.B . x.I.G.G.G.G.G.U.T.^.).^.T.",
"'.'.T.U.G.G.G.G.G.P.G.G.G.G.{.q O k #       @ 1 6 6 k k 6 @   5 f.2.V j.a e T.G.G.G.G.Y.^.'.).{.).'.",
"^.R.R.^.T.U.G.G.G.G.G.U.T.!.XXE       # c 2.f.d.d.d.f.j.j.h.c   < d.d.d.V % N.P.P.T.^.^.R.^.).).'.^.",
"R.^.).^.'.).!.U.G.U.T.^.'.^..Xx.  . x d.v 2 @ .   . . < x h.f.Z . 6 f.T f.< l.|.^.|.).).^.T.^.^.T.U.",
"^.'.).).).'.|.T.U.T.).'.).^.XXQ   C N .   @ 1 4 4 3 : +   < V g.x . d.T f.1 { XX^.).).).'.{.Y.U.G.G.",
"U.Y.^.{.~.T.U.G.G.G.U.Y.!.XX[   Z B   # a z a 3 s d s d a   5 g.N . N d.d.< z.Y.Y.^.~.^.T.U.G.G.G.G.",
"G.G.G.Y.U.G.G.G.G.U.G.G.I.G.X c g.. ; z s ;   $   3 s a s 4   C T . n j.z q Y.G.G.G.Y.U.G.G.U.G.G.G.",
"G.U.T.^.T.I.G.G.G.G.G.U..X] + j.C   3 3 O o } P.Q   a s a s   c d.  m A X b.U.G.U.T.^.T.I.G.G.U.U.G.",
"T.).'.).'.'.!.U.G.U.R.^.+XW 6 g.<   X * 0 b.T.Y.U.$ 1 s a a   c V . n @ { !.U.!.).'.).'.'.^.Y.G.G.G.",
"^.).).).).'.~.T.P.Y.^.^.OXW a 6 = N.S.U.!.U.U.b.* @ a a s a   m m   . [ .XG.Y.^.'.).).).).^.^.!.Y.G.",
"^.T.^.).^.Y.U.G.G.G.G.U.XX .@ . D.+XXXR.V.U.T._   a s a s 3 . d.6   _ !.S.G.G.G.Y.^.'.^.T.R.).'.|.^.",
"'.|.!.U.U.G.G.G.U.G.G.G.G.U.7   D.#XG.q z.XXY.Y.0 + d s a   6 d.  ~ /.U.P.G.G.U.G.G.U.T.'.).).'.).'.",
"^.Y.P.G.G.G.G.G.G.G.G.G.U.(.|   X y   = $XG.V.T._   # @   # f.2 p >.Y ..J.U.G.G.G.G.G.G.Y.^.'.'.'.R.",
"G.G.U.G.G.G.G.G.U.G.G.Y.l.I %.g       X oX@X.X#X^ . 5 5 c f.8 > p.p.q.=.P M.U.G.G.G.G.G.G.G.I.R.Y.G.",
"I.G.G.G.G.G.G.G.U.G.Y.' @.q.p.a.;.i O   & R ~ R   k N b l % u 9.w.q.w.p.p.j Z.U.G.G.G.G.G.U.T.^.T.U.",
"'.R.I.G.G.G.G.G.G.P.J.G w.p.p.p.a.a.w.-.X.p u , u , , u f =.s.a.p.p.p.w.;.F K.U.G.G.G.I.R.'.'.).'.).",
").^.^.T.U.G.G.G.G.G.U.z.L &.@.O.+.&.g p.a.a.a.p.p.p.p.p.a.q.O.=.O.@.#.F ` A.U.G.G.U.T.R.^.).).).).).",
"R.R.^.|.^.R.Y.G.P.P.U.|./.J.A.m.H./ X.w.q.q.q.q.q.q.q.q.w.9.S M.B.H.Q.Q.L.E.Y.U.T.|.'.).R.T.^.'.^.Y.",
").|.).).).'.|.T.G.T.|.).).`.|.XX(.j a.w.p.p.p.p.p.p.p.p.w.0.F /.XXC.8.8.*.Y N..X'.).'.).'.'.T.Y.P.G.",
"Y.R.'.'.'.^.Y.U.G.G.Y.R.'.'.).T.T. .L H j %.+.+.+.%.#.j K ` K.).XX} X.q.p.9.D J.T.).'.'.R.Y.G.G.G.G.",
"G.G.U.T.U.G.G.G.G.G.G.G.U.T.U.G.P.U.U.K.m.n.n.n.n.n.n.m.G.T.I.Y.T.T.v.( K J k.U.G.U.T.Y.G.G.G.P.P.G.",
"G.G.U.^.Y.P.G.G.G.G.G.G.Y.T.Y.G.G.G.F.F.P.P.I.I.P.P.P.P.F.S.P.Y.T.Y.T.Y.J.J.Y.G.G.U.T.Y.P.G.U.G.G.G.",
"Y.T.'.'.'.^.Y.U.G.U.Y.!.'.'.'.R.Y.P.G.G.G.G.G.G.G.G.G.G.G.I.T.'.'.).^.U.P.P.G.Y.R.'.'.|.^.Y.U.G.G.G.",
"{.'.).).).'.|.!.U.T.|.|.).).'.'.'.T.Y.G.G.P.G.G.G.G.G.I.T.).'.'.).).'.|.R.U.Y.|.'.^.).).'.|.T.I.U.G.",
"T.R.R.'.|.!.Y.G.G.P.U.T.'.'.).R.T.^.|.^.Y.G.G.G.G.Y.R.^.^.!.R.^.'.|.^.Y.P.G.G.U.R.'.'.).R.T.^.'.^.Y.",
").^.R.T.Y.G.G.G.G.G.G.G.U.T.R.^.).).).).'.^.Y.U.^.'.).).).).^.!.T.Y.G.G.G.G.G.G.G.U.T.R.^.).).).).'.",
"'.R.I.G.G.G.G.G.G.G.G.G.G.G.U.T.'.'.).|.^.T.I.U.T.^.'.).'.'.R.Y.G.G.G.G.G.G.G.G.G.G.G.U.T.).'.).|.).",
"U.G.G.G.G.G.G.G.G.G.G.G.G.G.G.G.U.T.^.T.U.G.G.G.G.P.Y.^.!.U.G.G.G.G.G.G.G.G.G.G.G.G.G.G.G.U.T.^.T.U.",
"G.G.G.G.G.G.G.G.P.G.G.G.G.G.G.G.G.Y.^.I.G.G.G.G.G.G.U.^.T.G.G.G.U.G.G.U.G.G.G.G.G.G.G.G.G.G.I.R.Y.G.",
"^.Y.U.G.G.G.G.G.G.G.G.G.G.G.P.Y.^.'.).'.^.Y.G.G.U.T.|.'.'.^.Y.U.G.G.G.G.G.G.G.G.G.G.G.G.Y.^.'.|.'.^.",
"'.'.R.Y.U.G.U.G.G.U.G.G.P.Y.!.'.'.).).'.{.|.Y.Y.^.|.).).).{.{.!.Y.U.G.G.G.G.U.G.G.G.Y.T.'.).).).).).",
"^.T.^.'.^.Y.U.G.G.G.G.Y.^.{.^.T.^.).).).!.U.G.G.U.T.).).).^.T.^.{.^.T.U.G.G.G.G.Y.^.|.^.T.^.).).^.^."
};
