/* XPM */
static char *out[] = {
/* columns rows colors chars-per-pixel */
"50 50 172 2 ",
"   c #000001",
".  c #0A0906",
"X  c #06060A",
"o  c #05080D",
"O  c #0C0D0C",
"+  c #10120F",
"@  c #070C10",
"#  c #0B0D12",
"$  c #0C1112",
"%  c #181714",
"&  c #14161D",
"*  c #161A1D",
"=  c #1C1D1A",
"-  c #1F201B",
";  c #161C22",
":  c #1F232C",
">  c #242421",
",  c #282925",
"<  c #2A2A26",
"1  c #24262C",
"2  c #252A2E",
"3  c #33332E",
"4  c #242933",
"5  c #282E36",
"6  c #2E353F",
"7  c #373833",
"8  c #3A3B35",
"9  c #34353D",
"0  c #3A3B3B",
"q  c #43443D",
"w  c #353743",
"e  c #353942",
"r  c #403F4D",
"t  c #3B4149",
"y  c #454640",
"u  c #464942",
"i  c #4B4D46",
"p  c #47494F",
"a  c #57434C",
"s  c #52534C",
"d  c #484B56",
"f  c #4C535D",
"g  c #5B5D54",
"h  c #5C5C5B",
"j  c #64655D",
"k  c #66685D",
"l  c #525763",
"z  c #655869",
"x  c #5D616A",
"c  c #5D6572",
"v  c #6B6E63",
"b  c #62666F",
"n  c #7B6065",
"m  c #70666F",
"M  c #6E7066",
"N  c #74766B",
"B  c #77796E",
"V  c #636675",
"C  c #666972",
"Z  c #6B6977",
"A  c #7C747D",
"S  c #97333F",
"D  c #9C353A",
"F  c #9F393E",
"G  c #A2353B",
"H  c #A2383D",
"J  c #A9383F",
"K  c #9D3C43",
"L  c #A43C42",
"P  c #AA3D41",
"I  c #A03F48",
"U  c #89434D",
"Y  c #9E4247",
"T  c #9E474D",
"R  c #874D58",
"E  c #9E4C50",
"W  c #9D535B",
"Q  c #A74349",
"!  c #A4424A",
"~  c #A5494F",
"^  c #A9484F",
"/  c #A44750",
"(  c #A34B52",
")  c #AA4E56",
"_  c #A3545B",
"`  c #AB555C",
"'  c #A45D64",
"]  c #A95F67",
"[  c #8A656D",
"{  c #9D6068",
"}  c #936573",
"|  c #9D6B73",
" . c #9D747D",
".. c #99787F",
"X. c #A86167",
"o. c #A2636A",
"O. c #AC636B",
"+. c #B0636D",
"@. c #A26B73",
"#. c #AA6B74",
"$. c #A3747D",
"%. c #AA757B",
"&. c #7F8174",
"*. c #82857A",
"=. c #86897E",
"-. c #666C84",
";. c #787681",
":. c #747C8D",
">. c #797B8F",
",. c #906F82",
"<. c #8D7E85",
"1. c #907A85",
"2. c #9A7B86",
"3. c #9E7E8A",
"4. c #A47C84",
"5. c #AD7A84",
"6. c #A87E88",
"7. c #7D8598",
"8. c #8B8D81",
"9. c #89828D",
"0. c #9B838C",
"q. c #99858F",
"w. c #8F9183",
"e. c #929587",
"r. c #939588",
"t. c #95998B",
"y. c #999C8D",
"u. c #838799",
"i. c #8F8E9C",
"p. c #958993",
"a. c #9C8A94",
"s. c #938C9A",
"d. c #9C8E99",
"f. c #9B9F91",
"g. c #90929F",
"h. c #9F949D",
"j. c #A4868E",
"k. c #AB848E",
"l. c #B28087",
"z. c #A38A93",
"x. c #AA8C94",
"c. c #A48E99",
"v. c #A3959F",
"b. c #A9939F",
"n. c #B0929E",
"m. c #9CA08F",
"M. c #9EA394",
"N. c #9FA398",
"B. c #A1A596",
"V. c #A3A897",
"C. c #A3A798",
"Z. c #A5A99A",
"A. c #AAAD9E",
"S. c #ADB09F",
"D. c #8E94A2",
"F. c #9495A2",
"G. c #9E94A1",
"H. c #9C9BA7",
"J. c #9198A8",
"K. c #9C9DAB",
"L. c #A997A3",
"P. c #A099A3",
"I. c #A09EAA",
"U. c #9AA0AC",
"Y. c #ADAFA0",
"T. c #AEB2A1",
"R. c #B1B4A3",
"E. c #B5B8A7",
"W. c #B6B9A9",
"Q. c #BABDAC",
"!. c #BDBFB1",
"~. c #BCC1AD",
/* pixels */
"R.R.S.A.C.M.M.M.M.M.M.M.C.A.A.R.R.R.R.T.R.R.Z.C.T.R.R.R.R.T.R.S.A.C.M.M.M.C.M.M.M.V.Z.T.T.T.R.R.T.R.",
"R.A.C.M.M.B.B.M.M.B.B.M.M.M.C.A.R.R.R.R.Y.A.B.B.A.R.R.R.R.R.S.V.M.M.M.M.M.M.C.M.M.M.M.C.S.R.R.R.R.T.",
"C.M.M.M.B.M.M.B.M.M.M.M.M.M.M.M.C.A.R.A.B.M.M.B.v.B.V.S.S.V.M.M.M.M.M.M.M.M.M.M.M.M.M.M.M.M.A.S.A.M.",
"M.M.M.M.M.M.M.M.M.M.B.M.M.M.M.M.M.Z.A.B.B.f.M.B.m.m.V.S.Z.V.M.M.M.C.M.M.M.M.M.M.M.M.M.M.M.M.V.S.Z.M.",
"R.Z.B.M.M.B.M.M.M.M.B.B.B.M.C.Z.T.R.R.R.S.Z.B.m.C.S.E.R.T.R.A.B.M.M.M.M.M.M.M.M.M.C.M.M.V.S.R.R.E.T.",
"R.R.S.Z.B.f.M.B.M.M.M.m.C.Z.A.E.R.R.R.R.R.E.Z.Z.T.E.S.S.R.R.R.S.Z.V.M.M.C.M.M.M.M.M.Z.A.R.R.R.R.T.R.",
"S.S.S.R.S.A.B.M.M.M.M.A.A.R.T.A.A.R.R.R.A.C.M.M.C.A.T.R.E.S.S.S.R.R.A.C.M.M.M.M.Z.S.R.R.S.S.T.R.T.S.",
"T.T.R.R.R.R.T.A.M.A.R.R.R.R.R.T.R.A.A.C.M.M.M.M.m.M.C.Z.S.S.R.T.R.S.R.T.S.M.C.T.R.S.R.R.R.R.S.S.C.M.",
"A.S.R.T.R.R.A.N.M.M.A.T.R.R.R.T.Z.M.M.M.M.M.C.M.M.M.M.M.M.Z.T.E.E.T.T.T.C.M.C.A.T.R.R.R.T.A.C.M.M.M.",
"B.B.A.S.S.M.M.m.M.M.M.N.A.A.A.C.M.M.M.M.M.M.M.M.M.M.M.M.M.M.N.Z.T.A.C.M.M.M.M.M.B.A.S.A.C.M.M.M.M.M.",
"B.y.m.A.M.N.S.S.A.Z.Z.N.C.A.M.m.M.M.M.M.B.M.M.M.M.M.M.M.M.M.M.M.C.C.M.M.M.M.M.M.M.M.A.M.f.B.M.M.M.M.",
"B.A.T.T.W.8.u s g M &.e.C.S.E.R.S.A.T.Z.Z.C.M.M.M.M.M.M.f.M.C.T.E.T.A.C.M.M.M.N.A.A.R.R.A.B.M.M.M.M.",
"T.R.R.T.Q.[               + = 3 q s j N *.e.M.M.Z.S.S.S.T.E.E.E.T.T.T.T.A.M.Z.T.R.R.R.R.R.T.A.B.M.M.",
"A.T.T.T.S.~.q   l V C x d e 1 & o           . % , 8 s v &.w.M.S.E.Q.Q.W.T.Z.N.A.T.R.R.T.R.S.S.R.T.C.",
"T.T.S.T.S.V.M.- $ -.p.5.l.x.n.b.h.s.<.;.b f t 5 ; @           O - 3 y g k *.M.M.B.Z.S.T.A.T.R.R.T.T.",
"R.R.A.B.M.m.Z.w.  : Z U G D D D F Y ( _ O.#.5.k.x.z.p.9.A C f t 5 ; @       N S.m.M.M.A.T.E.R.R.T.E.",
"Z.N.M.M.M.M.M.Z.M   w u.h.c.j.j.4.@.' _ E K K D D D L ! ~ ` O.#.%.6.4.1.V & O t.C.M.M.M.C.Z.T.R.T.A.",
"M.M.M.M.M.M.M.M.Y.i   d >.G.P.U.I.K.K.K.H.H.G.d.a.4.$.| { W E ! K D K G R c   7 A.y.M.M.M.M.C.A.C.f.",
"S.N.M.M.M.M.M.M.N.C.,   c ,.K E _ ' @.$.5.j.c.v.P.H.K.I.U.U.K.J.G.d.a.3.2.:.r   M A.M.M.B.Z.T.T.T.Z.",
"R.R.A.N.M.M.M.M.M.C.y.O $ Z } ' W Y I K D G D H L ! ) _ o.#.%.6.j.c.v.P.H.F.>.: . r.C.Z.R.R.T.E.T.E.",
"S.S.S.R.Y.N.M.M.M.f.Z.*.  1 :.7.g.g.i.s.p.3.2. .| { _ ( ~ ! H H H J P L ^ ` R z X 3 W.Y.Y.Y.R.T.T.T.",
"S.S.T.R.T.E.T.C.M.C.Z.!.N   w >.4.2.3.3.a.F.F.F.F.J.J.D.g.s.p.q.2... .@.] ' T } f   v !.S.A.T.T.A.N.",
"R.R.R.R.E.T.E.Z.M.Z.T.T.!.g   f n L P P L L ! / ( _ X.@.$.4.0.a.a.F.F.F.J.F.J.F.7.4   y.W.T.Z.M.M.M.",
"M.Z.T.T.T.Z.M.M.C.M.C.Z.Y.Q.y   9 a n [ | | #.O.O.` ) Q L H G H K L ! ! _ ' o.@.4.[ o , T.M.M.M.M.M.",
"C.M.B.Z.C.m.M.M.M.M.M.M.V.Z.8           $ ; 2 0 p h m ..<.q.0.k.l.5.#.+.` ` ! L G S a   s A.M.M.M.M.",
"M.C.A.S.S.V.M.M.M.M.M.T.e.-                               @ & 1 e p l C ;.9.s.G.v.n.L.r   *.Z.M.M.C.",
"A.T.R.R.T.E.S.C.M.C.Q.B .                                                   # & 1 6 p d X = C.M.M.M.",
"S.R.R.R.T.T.T.Z.C.S.s                                                                   X   h W.C.M.",
"S.A.T.R.T.Z.M.Z.t.<                                                                   X   = y.E.T.T.",
"R.E.S.C.N.M.T.&.+                                                                       - Z.Q.T.T.T.",
"T.Z.M.M.M.A.j                                                                         > M.E.T.R.E.A.",
"B.M.M.N.C.u                                                                         , M.C.y.V.S.C.M.",
"B.M.M.y.<     X                                                                   7 B.B.m.C.S.T.Y.C.",
"R.S.S.&.                            X                                           8 C.M.B.S.T.R.T.R.R.",
"R.T.S.S.y.*.v g i 7 , % + X                           X                       u Z.Z.A.A.T.T.T.R.R.R.",
"S.S.T.S.E.E.R.A.A.A.A.A.B.t.e.&.v g u 3 > % O                               s T.A.R.R.R.S.A.S.E.Y.Z.",
"T.E.T.T.T.R.R.A.M.Z.R.R.R.E.E.Q.Q.W.T.Z.C.m.e.=.&.v g i q 7 , * O X     X j T.T.R.R.R.R.R.R.A.Z.B.f.",
"V.S.R.T.R.S.Z.M.M.M.C.S.T.R.R.A.C.f.M.M.M.B.B.V.Z.A.Y.Y.Y.Y.T.T.C.t.=.M =.A.M.C.A.R.R.R.S.Z.M.B.B.M.",
"M.M.C.A.Z.M.m.M.B.M.M.M.V.S.C.v.M.M.M.M.M.M.M.M.M.M.M.f.f.M.M.N.S.S.A.Z.V.m.M.M.B.B.A.C.M.M.M.B.B.M.",
"M.M.V.A.Z.B.B.M.M.M.M.M.V.S.V.m.M.C.M.M.M.M.M.M.M.M.M.M.M.M.M.M.A.V.M.M.M.M.M.M.B.C.A.C.B.M.M.M.M.M.",
"Z.A.R.R.R.S.C.C.B.M.C.S.R.R.R.T.C.M.M.M.M.C.M.M.M.B.M.M.M.V.A.R.R.R.Y.A.M.M.M.C.A.R.R.R.T.Z.B.m.M.M.",
"R.R.R.R.R.R.E.A.M.S.E.R.T.R.R.R.E.A.C.M.M.M.M.M.M.m.M.V.A.R.R.R.R.R.R.E.T.C.Z.E.R.T.R.R.R.R.S.V.M.M.",
"A.S.R.R.R.Y.Z.M.M.M.C.S.R.R.R.S.A.T.R.T.Z.M.M.M.M.Z.S.T.T.A.S.R.R.R.Y.C.M.B.M.V.A.R.R.T.T.A.T.R.T.Z.",
"R.T.A.Y.C.B.M.M.M.M.M.M.Z.A.S.T.R.R.T.T.R.S.Z.C.S.R.R.R.R.T.T.S.A.C.M.M.M.M.M.M.B.B.A.S.T.R.R.R.R.R.",
"R.A.V.M.M.M.M.M.M.M.M.M.M.M.C.A.R.R.R.R.S.S.V.M.A.S.R.R.R.R.S.C.B.B.B.f.M.m.B.M.M.M.m.B.S.R.R.R.R.R.",
"V.B.m.B.M.M.B.M.M.B.M.M.B.M.M.M.C.A.T.A.V.M.M.C.M.B.Z.S.A.C.M.M.B.f.B.B.B.M.B.M.B.M.B.M.m.V.A.S.A.C.",
"m.B.B.M.B.M.B.m.B.M.M.B.M.M.M.M.M.C.T.V.M.M.M.M.M.M.B.S.A.M.M.M.M.M.f.B.M.M.B.m.M.M.M.M.M.B.V.S.C.M.",
"S.Z.M.M.M.M.M.M.B.M.M.M.M.M.B.V.S.E.T.T.S.V.M.M.N.S.R.R.R.S.A.C.M.M.M.B.M.B.M.M.B.M.M.B.V.T.R.R.R.T.",
"R.R.S.Z.M.M.M.M.M.C.M.M.B.V.A.R.R.R.R.R.R.E.Z.V.T.R.S.R.R.R.R.A.Z.B.f.M.M.M.B.M.M.B.C.Y.T.R.R.R.R.R.",
"R.S.S.R.T.A.M.M.M.M.M.C.T.R.T.A.T.R.T.R.A.C.M.C.C.A.R.R.R.S.S.S.R.T.A.B.M.M.M.M.Z.T.R.R.Y.Y.T.R.Y.Y."
};
