/* XPM */
static char *out[] = {
/* columns rows colors chars-per-pixel */
"50 50 176 2 ",
"   c #010101",
".  c #080806",
"X  c #010D0D",
"o  c #0B0B0B",
"O  c #1D0D0E",
"+  c #0E100F",
"@  c #11110F",
"#  c #110F10",
"$  c #0C1414",
"%  c #161616",
"&  c #181617",
"*  c #161817",
"=  c #191917",
"-  c #161618",
";  c #191718",
":  c #161B1B",
">  c #1A1A1A",
",  c #250A0B",
"<  c #201C19",
"1  c #381010",
"2  c #361816",
"3  c #1F1F21",
"4  c #1E2424",
"5  c #232323",
"6  c #282824",
"7  c #292926",
"8  c #212828",
"9  c #2C2D2C",
"0  c #352D2C",
"q  c #3D292A",
"w  c #2F302B",
"e  c #32312E",
"r  c #2E2F31",
"t  c #2F3130",
"y  c #323231",
"u  c #393534",
"i  c #393934",
"p  c #3C3D3B",
"a  c #560E10",
"s  c #4A1819",
"d  c #541617",
"f  c #681C1E",
"g  c #7D1E1C",
"h  c #542727",
"j  c #46312E",
"k  c #4E3A3B",
"l  c #553A3A",
"z  c #742B25",
"x  c #663634",
"c  c #41433C",
"v  c #4A413C",
"b  c #564639",
"n  c #434342",
"m  c #474A43",
"M  c #4A4B44",
"N  c gray31",
"B  c #53544C",
"V  c #534F50",
"C  c #5F5554",
"Z  c #575850",
"A  c #595758",
"S  c #5C5C5B",
"D  c #634F4E",
"F  c #70534D",
"G  c #655353",
"H  c #655A58",
"J  c #705C5E",
"K  c #59635A",
"L  c #63655C",
"P  c #735F60",
"I  c gray39",
"U  c #6B6D64",
"Y  c #6A6A69",
"T  c #746162",
"R  c #716B6B",
"E  c #6E7167",
"W  c #75766B",
"Q  c #79716F",
"!  c #717372",
"~  c #787471",
"^  c #7C7E73",
"/  c #7B7B7B",
"(  c #8D1E1D",
")  c #9B191B",
"_  c #992826",
"`  c #98332F",
"'  c #A22221",
"]  c #B02425",
"[  c #BA2E33",
"{  c #B53D3F",
"}  c #C52F2E",
"|  c #D82A29",
" . c #C52F30",
".. c #C23434",
"X. c #CE3231",
"o. c #CB383A",
"O. c #D73738",
"+. c #E12D2E",
"@. c #EA3C3B",
"#. c #FB3D3D",
"$. c #9E453F",
"%. c #DB3C40",
"&. c #FF3C42",
"*. c #9A4B46",
"=. c #845F59",
"-. c #955450",
";. c #B54645",
":. c #B5514F",
">. c #A25F5A",
",. c #B95451",
"<. c #B75A52",
"1. c #A3625C",
"2. c #896E65",
"3. c #917069",
"4. c #867F78",
"5. c #9F7E75",
"6. c #CA4544",
"7. c #C64C4E",
"8. c #F64543",
"9. c #D06B59",
"0. c #7F8276",
"q. c #9C806B",
"w. c #858276",
"e. c #81857A",
"r. c #87897C",
"t. c #898B7D",
"y. c #858585",
"u. c #8B8D84",
"i. c gray55",
"p. c #908A88",
"a. c #89928F",
"s. c #959385",
"d. c #929688",
"f. c #959A8B",
"g. c #9A9C8E",
"h. c #9C9593",
"j. c #949E91",
"k. c #9C9F91",
"l. c #999896",
"z. c #A19E8F",
"x. c #8FA08E",
"c. c #9CA08F",
"v. c #95A596",
"b. c #9FA394",
"n. c #99A798",
"m. c #96A998",
"M. c #9DA99B",
"N. c #A1A496",
"B. c #AFA491",
"V. c #A4A897",
"C. c #A3A798",
"Z. c #A5A99A",
"A. c #AAAD9D",
"S. c #ADB09F",
"D. c #9FB0A0",
"F. c #ADAFA0",
"G. c #AAAAAA",
"H. c #AEB2A1",
"J. c #AFBCAB",
"K. c #B1B4A3",
"L. c #B5B9A7",
"P. c #B5BAA9",
"I. c #BABDAC",
"U. c gray69",
"Y. c #BDC1AE",
"T. c #BEC1B0",
"R. c #C7CAB8",
"E. c gray77",
"W. c #CBCBCB",
"Q. c #CFD0D2",
"!. c gray83",
"~. c #DCDCDC",
"^. c gray89",
"/. c #EAEAEA",
"(. c #F5F5F5",
"). c #FCFCFC",
/* pixels */
"K.K.S.A.C.b.b.N.N.b.b.b.C.A.A.K.K.K.K.K.K.K.Z.C.K.K.K.K.K.H.K.A.S.C.b.b.b.b.b.b.b.C.A.H.H.H.K.K.H.K.",
"K.A.C.b.b.b.N.b.b.b.b.b.b.b.V.Z.K.K.K.K.K.A.N.N.Z.K.K.K.K.K.S.Z.b.b.b.b.b.b.b.b.b.b.b.C.S.H.K.K.K.H.",
"C.b.b.b.N.b.b.b.b.b.b.b.b.b.b.b.V.A.A.Z.b.b.b.b.b.N.Z.H.F.N.N.b.b.b.b.b.b.C.b.b.b.b.b.b.b.b.A.H.A.b.",
"b.b.b.b.b.b.b.b.b.N.b.b.b.b.b.b.N.Z.S.V.b.b.b.b.k.N.N.A.A.b.b.b.b.b.b.b.b.b.b.b.b.b.b.b.b.b.V.S.Z.b.",
"K.Z.N.N.b.b.b.b.b.b.b.b.b.N.C.A.K.K.K.K.A.Z.b.b.Z.F.K.K.K.K.A.N.b.b.b.b.b.b.b.b.b.b.b.b.V.S.K.K.K.H.",
"K.K.S.Z.N.b.b.b.b.b.N.b.N.Z.A.K.K.K.H.K.K.K.F.A.K.K.H.H.H.K.K.F.Z.C.b.b.b.b.b.b.b.b.Z.A.K.K.K.H.K.K.",
"S.A.S.K.K.Z.N.b.N.b.C.Z.S.K.H.A.F.H.K.I.K.N.k.d.f.Z.L.T.I.S.A.S.K.K.A.C.b.b.b.b.Z.H.K.K.S.S.K.K.K.H.",
"S.K.H.K.K.K.K.A.c.A.K.K.K.K.H.K.F.K.F.U u = o o . o 6 Z u.L.L.S.K.H.K.K.S.b.C.H.K.H.H.K.S.K.H.S.C.b.",
"A.S.K.K.K.K.Z.C.b.N.A.K.K.K.K.H.S.b.9     o % > > % .     u g.I.H.K.H.F.Z.b.b.A.K.K.S.K.K.A.C.b.b.b.",
"b.N.A.S.A.C.N.b.b.b.b.C.A.S.A.V.b.9   5 e y e 9 9 r r 9 >   . 0.L.A.Z.b.b.b.b.b.C.A.S.A.C.c.b.b.b.b.",
"N.N.N.Z.b.b.b.b.b.b.b.k.C.Z.c.A.M   5 9 9 5 5 r 9 9 9 9 r 9 .   r.F.g.b.b.b.b.b.g.b.Z.C.k.b.b.b.b.b.",
"b.Z.S.K.K.A.C.b.M.b.b.A.S.K.L.s.  * y 9 r >   % 9 u 9 9 9 r y   5 K.A.C.b.b.b.b.A.K.K.K.A.N.b.b.b.b.",
"K.K.K.S.K.K.K.A.b.A.K.K.K.F.I.U   9 9 9 y 9 . %   . > 5 5 5 5 5   r.I.H.S.C.Z.K.K.K.K.K.K.K.Z.N.b.b.",
"S.S.K.K.K.K.A.C.N.N.A.K.K.H.I.c   9 9 5 - o   A U.n % . o o o .   c R.Z.C.b.V.A.S.K.S.K.K.S.K.K.A.M.",
"S.S.S.S.A.N.b.b.b.k.N.N.A.H.K.5 . t 9 %   n n / ).)./.!.^.^.^.!.i.o i V.b.b.b.b.N.Z.H.S.S.K.K.H.K.K.",
"K.K.A.N.N.b.N.c.b.b.b.k.k.b.N.% % y 9 9   ! (.).(.(.).).).).).).).^.5 y A.b.b.b.b.b.C.Z.H.K.H.K.K.K.",
"A.M.b.b.b.b.b.b.b.b.b.A.A.H.r.  > y 9 y % 6 Q./.).(.(.).(.(.).(.(.)./.+ ^ Z.b.b.b.b.b.b.b.Z.H.H.H.A.",
"k.b.b.b.b.b.b.b.b.C.C.W m w %   > w 9 r * 5 W.!.(.).(.(.(.).).(.(.(.).S c K.g.b.n.b.b.b.b.k.C.A.N.b.",
"A.C.b.b.b.b.b.k.b.f.9     .     3 9 9 9 > > W.W.Q./.(.).).(.).(.(.(.).Y p K.b.b.b.b.b.b.C.A.H.K.H.A.",
"K.K.A.b.b.b.b.b.Z.y   5 9 y -   > r 5 6 9   l.~.E.W.~.^./.(.(.(./.(.(.3 U S.b.b.b.b.N.Z.H.K.K.H.K.H.",
"H.A.S.K.F.C.b.b.g.o * y 9 r +   ; 9 % o u + > E.~.Q.W.W.W.W.W.W.!.~.N > N.b.k.v.b.A.F.F.H.H.K.K.H.H.",
"A.K.K.K.K.H.F.F.r.  5 9 7 7 o . - 9 > , > y . % y.W.!.~.~.~.~.!.G.p   t.H.b.N.F.H.K.K.K.K.A.F.K.F.M.",
"K.K.K.F.H.K.H.K.W   = > ; - . . % 7 4 s d $ 0 >   > n Y y./ I r   .   r.P.b.Z.H.K.K.K.K.K.K.A.b.b.b.",
"N.Z.F.K.H.A.b.A.L   % * - :   . - 3 t % ` z : - 7 > o .     . % 9 3   0.N.b.b.b.Z.F.K.H.A.N.k.b.b.b.",
"N.k.b.Z.C.b.c.A.B   & % % %   o ; - 9 8 2 ` H I r 5 > < > 5 8 8 5 t S b.b.b.b.b.b.b.Z.b.b.b.b.b.b.b.",
"k.V.A.S.S.V.c.A.m   > % & *   o > % 7 y : d h ! R S Y V I r 2 h l A j.Z.b.b.b.b.N.S.S.S.C.b.b.b.b.N.",
"A.K.K.K.K.K.A.H.c   > % * &   o > % > 9 8 O J C j k k T P ( | ] ' ) 2.P.Z.b.N.F.S.L.L.H.L.S.C.b.b.b.",
"H.K.K.K.H.H.H.L.i   > % & *   . * % - 5 w 4 u Q P D k 2 1 a _ @.o.o.o.f.H.N.A.H.S.C.M.H.H.H.H.S.N.C.",
"H.F.H.K.H.Z.N.Z.i   > % % >   o > % - > 9 y * v h.l.h.G G q q x O...X.-.n.b.b.b.V.V.F z.H.S.H.K.H.F.",
"K.K.A.V.M.b.b.A.w   > % % -   o > - * % > 9 y b 5 A p.~ p.Q y.a.q }  .,.f.N.b.N.N.M.$.5.J.H.H.K.K.K.",
"H.Z.N.k.b.b.b.Z.6   > - * >   . > % & * - 3 9 0 6 > < 5 9 y 6 ; X f X.{ s.N.b.b.C.v.$.>.F.S.K.H.K.H.",
"b.N.b.b.N.b.b.Z.9   > % % ;   . > & * & % % > 3 8 6 0 6 3 ; % % - ,  .[ 5.M.b.b.b.v.*.:.v.c.Z.H.N.b.",
"V.N.b.z.b.b.k.A.c   > % - > . . > % = = % - % % % - % % % % % > ;   g } -.m.N.k.N.v.;.7.x.V.A.S.A.N.",
"K.A.V.N.b.b.b.A.0.    % > > . . - > % - % = % - = % * - - % % * ;   0 [ %.3.m.M.Z.4.O.,.D.K.K.K.K.K.",
"K.K.S.A.Z.b.b.k.A.E %         . % % = % - % % % - ; % % % % % > &   K 3.+.8.1.q.3.6.8.q.H.K.K.S.K.H.",
"S.S.H.H.K.A.A.b.b.C.C.0.Z B 5   > % - % % = .       .     . % & %   W P.=.X.#.#.8.&.9.V.A.S.S.K.F.Z.",
"K.K.H.K.K.K.K.F.N.Z.K.Y.I.R.Z   > % % > % %   9 L c   . % % * > %   u.I.H.w.*.6.6.<.B.H.H.K.A.Z.N.b.",
"V.A.K.H.K.S.Z.b.b.b.Z.A.A.I.B   > % % - % =   M Y.e.  % * % & = o . b.Z.N.M.n.f.g.g.P.K.S.Z.N.b.N.b.",
"b.N.C.A.Z.N.k.b.b.b.b.b.b.L.Z   % = > - = =   c L.U   % - % % > . % c.b.b.b.N.C.V.C.A.N.b.b.b.b.b.b.",
"b.k.C.A.Z.b.b.b.b.b.b.b.C.P.L   % > - % % >   B L.W   % > = > >   u S.b.b.b.b.c.b.V.A.V.N.c.N.b.b.b.",
"Z.A.K.K.K.H.A.b.N.b.Z.F.K.I.^   % = % % = >   I F.g.&   o % o   @ f.K.Z.M.b.b.Z.A.K.K.L.S.Z.b.b.b.b.",
"K.K.K.K.K.K.K.A.b.A.K.K.K.K.Z.#   % > > %   . d.b.V.w.5 .   . c N.I.K.K.A.b.A.K.K.H.H.K.K.K.S.Z.b.k.",
"A.S.S.K.K.F.Z.b.b.N.Z.A.K.S.P.4..         . E Z.b.C.K.K.f.t.g.I.L.K.A.Z.N.N.b.V.S.H.K.H.S.S.S.K.H.A.",
"K.K.F.F.Z.b.b.b.b.b.k.b.Z.A.A.L.g.B i c U N.H.C.H.H.K.K.K.I.K.A.A.Z.N.k.N.N.b.b.b.b.S.S.H.K.H.K.K.K.",
"K.A.V.b.b.b.b.b.b.b.N.b.N.b.C.Z.P.T.I.Y.Y.S.N.b.Z.S.K.K.H.S.S.Z.b.b.b.N.b.b.b.b.b.b.c.V.S.H.K.H.K.K.",
"C.b.c.N.b.b.b.N.N.b.b.N.b.b.c.N.b.A.H.A.b.b.b.b.b.C.A.S.A.C.N.b.N.b.b.b.C.b.b.b.b.b.b.b.b.C.S.H.A.C.",
"b.b.N.b.N.b.N.c.b.b.N.c.b.b.N.b.b.C.S.V.b.b.b.b.b.c.b.S.A.N.b.b.b.b.b.b.b.b.b.b.b.b.b.b.b.b.V.S.N.N.",
"S.Z.b.b.b.b.b.b.N.b.N.c.b.b.N.V.H.K.H.H.S.V.b.b.V.S.K.K.K.S.Z.C.g.N.b.b.b.b.b.b.C.b.b.b.C.H.K.K.K.H.",
"K.K.S.Z.b.b.b.b.b.C.b.b.b.C.A.K.K.K.K.K.K.K.A.Z.H.K.K.K.K.H.K.H.A.N.b.b.N.b.b.N.b.N.N.A.K.K.K.K.K.K.",
"S.S.H.K.H.A.b.b.b.b.b.V.H.K.H.A.H.K.K.K.A.N.b.b.V.A.H.K.K.H.A.H.K.H.Z.N.b.b.b.b.Z.F.K.K.A.F.K.K.F.F."
};
