/* XPM */
static char *out[] = {
/* columns rows colors chars-per-pixel */
"50 50 146 2 ",
"   c #9BA292",
".  c #9DA190",
"X  c #9CA091",
"o  c #9CA391",
"O  c #9EA291",
"+  c #9FA291",
"@  c #9DA192",
"#  c #9DA193",
"$  c #9EA092",
"%  c #9FA193",
"&  c #9CA393",
"*  c #9FA392",
"=  c #9EA293",
"-  c #9DA492",
";  c #9FA493",
":  c #9DA395",
">  c #9EA294",
",  c #9FA394",
"<  c #9FA395",
"1  c #9EA196",
"2  c #9DA494",
"3  c #9FA495",
"4  c #9EA595",
"5  c #9FA496",
"6  c #9FA696",
"7  c #A0A392",
"8  c #A0A692",
"9  c #A0A294",
"0  c #A1A294",
"q  c #A0A295",
"w  c #A1A395",
"e  c #A1A396",
"r  c #A0A594",
"t  c #A1A695",
"y  c #A3A695",
"u  c #A0A596",
"i  c #A0A597",
"p  c #A2A496",
"a  c #A3A597",
"s  c #A1A697",
"d  c #A0A797",
"f  c #A2A796",
"g  c #A4A796",
"h  c #A3A897",
"j  c #A2A997",
"k  c #A5A897",
"l  c #A2A798",
"z  c #A2A799",
"x  c #A4A698",
"c  c #A5A799",
"v  c #A3A899",
"b  c #A2A999",
"n  c #A3AA98",
"m  c #A3A89A",
"M  c #A3AA9A",
"N  c #A4A998",
"B  c #A6A998",
"V  c #A5AA99",
"C  c #A4AB99",
"Z  c #A7AA99",
"A  c #A4A99A",
"S  c #A4A99B",
"D  c #A6A89A",
"F  c #A7A99B",
"G  c #A5AA9B",
"H  c #A7AB9A",
"J  c #A6AD9B",
"K  c #A7AB9C",
"L  c #A7AB9D",
"P  c #A5AC9C",
"I  c #A6AD9D",
"U  c #A8A99B",
"Y  c #A8AB9A",
"T  c #A8AC9B",
"R  c #A9AC9B",
"E  c #A8AA9C",
"W  c #A9AA9C",
"Q  c #A9AB9D",
"!  c #AAAB9D",
"~  c #A9AD9C",
"^  c #A8AC9D",
"/  c #ABAC9C",
"(  c #AAAD9C",
")  c #AAAE9D",
"_  c #ABAE9D",
"`  c #A9AD9E",
"'  c #A9AD9F",
"]  c #AAAC9E",
"[  c #ABAD9F",
"{  c #ABAF9E",
"}  c #AAAE9F",
"|  c #ABAF9F",
" . c #ACAD9D",
".. c #ACAF9C",
"X. c #ACAF9E",
"o. c #ACAE9F",
"O. c #AEAF9F",
"+. c #A9B09E",
"@. c #A9B09F",
"#. c #ADB09D",
"$. c #ACB19D",
"%. c #ACB09F",
"&. c #ADB09F",
"*. c #AFB29F",
"=. c #ADAFA0",
"-. c #AEAEA2",
";. c #ABB2A0",
":. c #ACB0A0",
">. c #ADB1A0",
",. c #ADB1A1",
"<. c #AFB0A0",
"1. c #AEB1A0",
"2. c #AEB0A1",
"3. c #ACB3A1",
"4. c #AEB2A1",
"5. c #AFB2A1",
"6. c #ACB0A2",
"7. c #AFB1A2",
"8. c #ACB3A2",
"9. c #AEB2A2",
"0. c #AFB3A2",
"q. c #AFB3A3",
"w. c #AFB4A0",
"e. c #ADB4A3",
"r. c #AEB5A3",
"t. c #AFB6A5",
"y. c #B0B1A1",
"u. c #B0B3A0",
"i. c #B1B2A2",
"p. c #B0B3A2",
"a. c #B0B2A3",
"s. c #B2B3A3",
"d. c #B1B4A1",
"f. c #B0B5A1",
"g. c #B0B4A3",
"h. c #B1B4A3",
"j. c #B1B3A4",
"k. c #B0B4A4",
"l. c #B1B5A4",
"z. c #B1B5A5",
"x. c #B3B4A4",
"c. c #B2B5A4",
"v. c #B2B4A5",
"b. c #B2B6A5",
"n. c #B3B6A5",
"m. c #B2B6A6",
/* pixels */
"p.p.1.] l , , , , , , , s ` &.p.p.p.p.p.p.h.Z g p.s.p.p.p.u.g.;.` A = , , , , , , u Q &.p.p.p.p.5.p.",
"h.| x % > , 9 , , , , , , = l [ a.j.p.s.a.] p u K 9.s.p.s.k.%.A , = , , = , , , , , = a } a.h.p.h.g.",
"s > = , , , , , , , , , , , = > s ` 0.Y u = = , = 3 V 1.[ l , = 3 , , , 3 , = , , , , = = u R 4.^ 3 ",
"; = , , , , , , , , , , = , , = , G >.h = = , , > = t %.^ u = , 3 , , , , , , , , 2 , , = = n %.A , ",
"5.T r O , , , , , , , , , = u Y 9.j.p.h.>.H 7 7 x X.h.g.j.p.R p > = 3 3 , , , , , 3 = ; V >.h.l.j.2.",
"p.c.$.V u = , , , = , = u K X.h.h.5.p.p.j.z.E A q.v.p.5.p.f.h.=.K u = = , 3 , = $ 3 c ) p.f.p.p.h.h.",
"=.X.<.h.w.T i , , = 3 E 7.c.5.X.&.p.h.p.} l , , u ` p.d.h.=.X.1.h.p.( p = , = = Z 1.h.5.&.&.5.g.g.X.",
"5.p.p.p.p.h.g.~ * T h.h.p.p.p.p.5.=.` l = O , , @ = u ^ o.5.i.p.p.p.h.h._ ; N 0.h.4.p.h.5.j.1._ l = ",
"` 5.h.0.h.p._ l , a } e.h.p.h.e.| s = = , , , , , , , = u ^ 4.h.h.h.k.o.A , s } 5.h.p.h.p.[ s = = , ",
"= p Q =.] a @ = , % = l ` 2.` s = = , , , , , , 2 , , , , = 5 K 2.{ v , = , = = p Q ;.) a @ = , , , ",
", @ , P u @ , , , < ,   3 K 4 @ = , 2 , , , , * , , , = , 2 @ q G s @ = , , , , @ 2 K u @ , , , , , ",
"3 D 5.h.p.( p > , = u T p.h.2.T 8 = , , , , , , , , , , = ; G 3.h.0.} s = , = 3 R y.h.0.( p > , , , ",
"g.c.p.p.p.h.j.' 3 E l.c.p.p.p.l.u.^ 5 = + , , , , , = , A 8.l.p.i.p.h.t.[ 9 K k.h.p.p.p.g.p.! r > > ",
"&.1.5.p.h.h.} z < a / 7.h.p.p.1.X.2.9.Q u = = = = 3 H 4.4.&.1.p.p.h.a.{ k 9 s ` 5.h.p.p.5.&.1.p.} s ",
"5.&.&.5.) t = = , = = u Q 5.1.&.5.p.p.c.q.` u p T 0.h.p.p.5.&.&.4. .l > = , = = r J 4.1.&.p.p.7.h.p.",
"h.p.T 3 = = , , , , , = = 3 K u.h.5.p.p.h.0.V g 5.h.p.p.p.h.h.( d % = 2 , , 2 , , = 3 V 0.l.5.p.p.h.",
"Q u = , , , , , , , , , , , = u I 4.p.1.H 4 = % % D %.0.4.Q a % , , , , , , , , , = , = u H 4.p.9.^ ",
"@ = = , , , 2 , , , , , , , , = @ l %.r X < < < ,   * _ G @ = , , = , , 3 , , , 2 3 < < > X t X.l @ ",
"_ s = , , , , , , , 2 2 , , = r ~ 1.p.5.E 3 @ = , A 1.p.0.) t @ > < , = , , = , , , , = 6 ^ 5.p.4.T ",
"h.g.( p > = , , 2 , , > , u ^ p.h.p.p.p.h.7.F x 5.l.p.p.p.h.p.} u = = , , , , , > @ 3 Z 0.h.p.a.p.h.",
"5.&.&.7.[ x = = , = = s ] 7.2.X.&.p.u.h.5.Q a p W ,.j.p.p.5.1.&.7.o.l = = , = = i Q 7.2.1.<.p.p.g.0.",
"&.1.p.0.h.p.| v , l { 0.h.p.p.5.&.1.5.R u @ = , = 3 F 1.5.&.1.p.p.h.p.{ h , s ` 5.h.p.p.5.&.1.5.` u ",
"9.h.i.p.p.h.k.` 3 E p.h.p.p.h.s.5.F e = 3 , , , * , = , A 1.c.p.p.p.h.h.X.; G q.h.p.p.p.h.a.K 3 = = ",
"3 K 2.a.q.Q p & , > 3 ^ 5.p.5.F w = , = , < , , , , - , = 9 G 7.s.p.] p @ , @ 3 F ,.k.7.^ u = , , , ",
", # , I u @ * , , 3 , @ 7 Y w @ , , , 9 3 , 9 , , , < , , , @ % Y y @ > 3 , , , @ , K 3 @ < u , , , ",
"= a ) 4.X.h * = 9 = = x _ 5.[ s = = 2 , , , , , , 3 , , = = s ` 5.&.D , O , = @ f ) 4.{ h , = 3 3 , ",
"{ p.g.p.h.g.=.M = c &.g.p.i.h.g.X.x = = , , , , , 3 = = s _ p.h.p.h.a.5.Y ; v | p.h.p.h.h.:.v 2 = , ",
"9.p.p.u.p.h.q.^ 3 G q.j.p.i.a.p.5.&.[ b % = , , = = a ] =.5.p.p.i.p.g.k.` 3 A 2.h.p.p.p.p.5.2.o.v , ",
"5.X.2.s.4.Y 3 = = & * G 2.j.2.X.&.p.h.j.o.v 9 , s } p.h.p.1.X.-.g.5.E 3 @ , = , B 1.h.5.X.&.p.h.z.:.",
"h.x.o.x 3 @ , 2 , , 2 = 3 v } h.h.p.h.p.c.c.Y B h.x.p.p.p.h.h.:.A 3 = , , , , , = = l ( h.p.p.h.p.h.",
"1.G 0 = , , , : , , , > , & > A ,.j.g.h.:.v 9 9 s ` p.c.h.9.K 3 = , , , , , 2 , , , = , v :.h.h.h.&.",
"* = 3 , , , * , , , , , , , , = = c &.g $ = , = = @ r X.E > = 9 , , , , , , , , , = , , = $ g &.v @ ",
"h * = , = % = , 9 , 9 , , , @ , m [ 5.R a = = = = u K 5.&.N , = , , , 3 , , , , , , , = = l ( 4.} l ",
"h.%.j O = , , , , , , , = > v &.h.h.p.h.p.X.g y ( 5.h.p.c.h.1.D , = , , = , , , , = = f %.g.h.i.h.p.",
"p.5.>.X.M , = , 3 , = 2 c [ >.5.p.p.p.p.k.9.D c :.h.h.p.p.p.p.>.X.^ 3 = , , , = % v [ =.5.p.p.p.p.p.",
"&.&.5.c.r.&.G < * 9 c :.h.h.p.&.O.5.a.=.A , = = = l o.0.0.&.&.5.h.h.7.U w , , x X.h.c.h.&.X.1.h.,.F ",
"p.c.p.p.p.h.v.} , Q c.h.5.a.p.h.h.} v , = , , , , = = l ^ p.c.p.p.7.h.c.&.w L z.j.5.p.p.h.h.[ B 9 = ",
"v &.h.h.h.2.D 3 , , v :.h.h.h.6.A , = , , , , , , 3 , = , l | k.h.c.2.G 3 , , x X.h.d.h.=.A , = , , ",
"= % l ] c , = , , , @ , g } x = = , , = , * , , , 9 , , , = > s } G , = , , , @ % a ` v % = , - 9 , ",
"= % l @.A 9 = 2 , 9 = , v | v , @ 2 & , , , , , , , , , , = , l ` G 3 , , , , = 2 x } G 9 @ , , , , ",
"A X.h.h.h.1.F 5 , 3 A =.h.h.h.>.N ; = , , , , , , , , = = h { g.h.h.2.K u , , A &.h.h.c.1.D 3 & = , ",
"a.h.p.p.p.h.m.| 5 ^ c.c.p.p.p.h.j.[ m < = % , , , O * g E p.h.h.p.p.h.n.&.w L m.h.5.p.p.h.k.X.k 3 = ",
"..#.*.h.v.=.S < , 9 x X.h.h.p.&.X.4.k.2.G , = = , A %.r.0.| &.5.h.h.2.D % 9 , l +.g.h.p.&.X.1.h.,.K ",
"p.0.&.[ A , = , , , = = c [ &.5.p.p.p.p.h.4.V f >.g.p.p.p.p.5.=.[ B , > , , , = = f ) &.5.p.p.p.p.h.",
"h.%.h = = , , , , , , , = = l X.h.h.h.h.0.) g r R 4.h.p.h.h.&.A 1 = , , , * , 3 , = O f { p.h.p.c.p.",
"f , = , , , , , , , , , , , = % a ] 4.R f = = , = w D >.| b , . , , , , , , , , , , , = , s ~ 4.` a ",
"o = , , , , , O 9 3 , , = , , = = A >.g @ = , , > & r :.E = = < , , , , , , , * , , , , = = k &.v = ",
"4.K 3 = , , , , , , = , , , ; C >.j.i.h.,.v 9 , l } c.h.h.4.Y u = , , , , , , , , , = , A ,.g.c.g.>.",
"h.h.%.V 3 = 3 , , 3 , . w v | g.h.p.p.h.j.b.H N 0.l.u.p.p.a.j.=.K u = 2 , , 3 , = , v ) h.p.p.p.i.p.",
"5.X.1.g.7.F 3 , , , , N 7.j.2._ 1.p.p.p.o.l , , s } p.p.p.5._ 1.j.9.E 3 , , , , D 2.v.5.X.1.p.p.7.,."
};
