/* XPM */
static char *out[] = {
/* columns rows colors chars-per-pixel */
"50 50 70 1 ",
"  c black",
". c #010101",
"X c #020202",
"o c gray1",
"O c #040404",
"+ c gray2",
"@ c #060606",
"# c #070707",
"$ c gray3",
"% c #090909",
"& c gray4",
"* c #0B0B0B",
"= c #0C0C0C",
"- c gray5",
"; c #0E0E0E",
": c gray6",
"> c #101010",
", c #111111",
"< c gray7",
"1 c #131313",
"2 c gray8",
"3 c #151515",
"4 c #161616",
"5 c gray9",
"6 c #181818",
"7 c #191919",
"8 c gray10",
"9 c #1B1B1B",
"0 c gray11",
"q c #1D1D1D",
"w c #1E1E1E",
"e c gray12",
"r c #202020",
"t c gray13",
"y c #222222",
"u c #232323",
"i c gray14",
"p c #252525",
"a c gray15",
"s c #272727",
"d c #282828",
"f c gray16",
"g c #2A2A2A",
"h c gray17",
"j c #2C2C2C",
"k c #2D2D2D",
"l c gray18",
"z c #2F2F2F",
"x c gray19",
"c c #313131",
"v c #343434",
"b c #353535",
"n c gray22",
"m c #3A3A3A",
"M c gray23",
"N c #3C3C3C",
"B c gray24",
"V c #3E3E3E",
"C c #3F3F3F",
"Z c #414141",
"A c gray26",
"S c gray28",
"D c #494949",
"F c #4B4B4B",
"G c gray32",
"H c #565656",
"J c gray34",
"K c #5A5A5A",
"L c #5F5F5F",
"P c #6A6A6A",
/* pixels */
"XX.oOO<@%#+=;*>52z212:><440d9lp><>>6r=&51;9q@;=$$:",
"o.o.o#%#o<-O&---6667;Cr=423urut04<<1>-,,>54-#;;#*%",
".o X@Oo+X#=&%-;%;*49>Kw%<2,37uak5,3<3$28,,*# kg %-",
".#%+@o%.Oo#%%*7-&=;>0*3:*&=3qbSpy115-<aHu:-#,,&#$$",
"$oOooO+$*o*;@%2#%>:313w3>;-;8ynp56:;>,yxe,;;,*o@#%",
". oOoXX+*@=,@*#@$;->1=wV<21<6yjB94;-d3<2:%==%$+$%#",
"&+XX.#o@#+@O:#*%$&--&$2u:329q7ea964,=:1<,;;-*#@@o$",
"@oOo #oo:4 O#@@#$;-@#=;5*;ueec7w7<3<;1<==>:#@@@@#O",
"X.&X X.-O*u.&O@5*#3G1,>>31r1sz=78,43->$-3-:@-##&;#",
"o%$$3XX*.:g $$$&*=>b9731t1>1s1-77---6e@,r-%#*%*-=#",
"+-&%2OX1*. +XOO$&$;t>32>1496w7<1:*==-=&$#%%==&$-+#",
"##*@ #$:+.#$%@&=%,3Dq2<44uy7tw5,3=&-o%*#$#&><,=###",
"@+*:Ooo .Oo#*&%#&96,9<4<>8w547433**#-9=q*%%>;,&&&=",
"$OXoo@-%#@#@O@#*;*;2:<>=><18qy-38r#O@x*<&-2oms.*3O",
"$+%@OX#%+X+#o3$f1*->-;*&;-4726<-%$#O+ k*o%=%2:$*;#",
"@%%+#$XXO@Xo+D6@>&-;**:&*>14>>>=%$#@#@1=%$@%+*1$-+",
"%%+o@+@@O#+o1*O&%:y:4>,5dM27V5>&&,OO#&OO###* NJ @$",
"@*#$#@%@@@$Oo@*%o6d&5<>6<18u04;1$$-oO#+@O$*@&<,+O@",
"&-$%%#%%&@#-#@#<-#-,;;4;$;581<:2>%,$w+$+#:#+@%$@@#",
"#&=&*:0&O%@*&=58;-13<7725j*&51;;=@;=9+#XO+X#;=#@$O",
"+#&#+:&&3+&@**,;=0<4qly6t32>%<y<&#@,+O%+@+o%#@#@#+",
";i=%@;$:8#%**&:->:35dPx<6q:%$,<-%O**&%&##@##=-+@*%",
"><--%=1-+*@%$>0&:&<>hAs1943;:&&%&$==->$=++##=#O%*@",
">#;:1:@#&**&&-;4%tz=93356;y;5&#=-%o#%@*@1&O%#:#%:o",
"-$>1%:&&:<*,;<-3><,>;-,&0e*-%3,+=-$:%$%=8-@$#%@#%>",
":*#21$;;,:w;=-1;,*;>,=:>3,,;%>=%%@=-#$;*e==#@*#+#*",
"=;&,:&==%=q<,:>;*=>236:>;*&&$##-1o#+&&#46.-%$$-=$*",
"$:r4*,&%%-=13532;=:<,>aq<=93#=&#%#*&#*$=;::&@@>*$-",
"=*5-3>%%&&=812421<<2=2<:62-$&$;*&@@1&#-&-x2<<*,:##",
";*%O95*==>51u4442-;5,;>696wh:*&$$2i%%O-;:$=2<@*>*X",
":1;-:34e7:>20vw:4e-*<:=:>>2x>&@#%#&;;&@&;-&:$@=,O8",
":;*&>4*NF#11>Zs,46-;*&&%2:*+-=#O$$O@#$=O-;%:-=*O+k",
";%@*&=*,24;63540e7:5-&&-::9&<*;<;OO##O%&%#>#*#e,##",
"-@*=##-&%,:690nfef61;#=*1<<-@:7:$%@$;##=9e%-;%u1%>",
":+%&=->:1;9,>2kd751-*&%-,1%22=>O+$%=;o&<q;#@;*&4<1",
"&#@=,<w=3:&;<7dd4:q:;,;-==--7r#@$++-#=,%>-=,$&>14e",
"#&=+51&;&=&=731761ct;92#-*,&>r#&%>@#&&$#:<2w=123>q",
"#o%&*=;6-=%*=3,3<;;<=&;=-=<-=&2,%*&#%#%&*=$%;-6yr4",
">-@$@=%o$*&$:>->:49s<--#=-*#*#>,=,>#=-=%%&<0=<w8ee",
"*&@O$&%%=$%%>7=:4;>:>*@,*=%@=4,-O=@@>#$&=otk%hi=19",
"+$+o%%-*##&@@&=<3:;=&>a#%*$#-;&%@@$*=%@,&=2:=**><<",
"$O$+##&#>O&%@&=71,;;=;409:%=*@,1&41<&&%@O=>#%;&19>",
"@##=#,&oO%o+&**:q1*-&;+>7,@-==:;-t9$$&+$&$#&&%*:>4",
"&#@%+>&++#oX>@%:<*ggO=%=%+$4$1>*>;@=**%:$==&&%--;-",
"o+o&$;*;-#X;:*%&&$*e1@&&&=1&*7h=$>=%e2#&%;*2;:,*,:",
"##+6B$&$#+$*$#*=-4;%:#$*:;3>,7q*A:-,-%&<<:$q1==$--",
"O+=>Lt@$OO@O%:$;1<$=-;73;$o%><&&6<;>;;<--;--%8-,;1",
"oO$@52X$$@%*-%&@*429:3,9<+;%*1=:=%=&:=$*$%&:2&*&<2",
"++#$##4>X@%*;-&#,1>ha#%:3O;=%-$%:-;@#$%=$@-4:=O;<>",
"Oo$&=&w-O@+@@+=&&2:xf>-**@=-;*@$&:=@$+$:%#;:==%;:6"
};
